<svg width="81" height="80" viewBox="0 0 81 80" fill="none" xmlns="http://www.w3.org/2000/svg">
<path opacity="0.3" d="M80.5 40C80.5 62.0914 62.5914 80 40.5 80C18.4086 80 0.5 62.0914 0.5 40C0.5 17.9086 18.4086 0 40.5 0C62.5914 0 80.5 17.9086 80.5 40ZM11.4071 40C11.4071 56.0675 24.4325 69.0929 40.5 69.0929C56.5675 69.0929 69.5929 56.0675 69.5929 40C69.5929 23.9325 56.5675 10.9071 40.5 10.9071C24.4325 10.9071 11.4071 23.9325 11.4071 40Z" fill="#2F2E30"/>
<circle cx="40.5" cy="40" r="29" fill="black"/>
<g clip-path="url(#clip0_1948_2028)">
<path d="M32.1673 51.6667C34.0083 51.6667 35.5007 50.1743 35.5007 48.3333C35.5007 46.4924 34.0083 45 32.1673 45C30.3264 45 28.834 46.4924 28.834 48.3333C28.834 50.1743 30.3264 51.6667 32.1673 51.6667Z" stroke="#FAFAFA" stroke-width="2" stroke-linecap="round" stroke-linejoin="round"/>
<path d="M48.8333 51.6667C50.6743 51.6667 52.1667 50.1743 52.1667 48.3333C52.1667 46.4924 50.6743 45 48.8333 45C46.9924 45 45.5 46.4924 45.5 48.3333C45.5 50.1743 46.9924 51.6667 48.8333 51.6667Z" stroke="#FAFAFA" stroke-width="2" stroke-linecap="round" stroke-linejoin="round"/>
<path d="M28.834 48.334H27.5007C26.3961 48.334 25.5007 47.4386 25.5007 46.334V41.6673M23.834 28.334H40.1673C41.2719 28.334 42.1673 29.2294 42.1673 30.334V48.334M35.5007 48.334H45.5007M52.1673 48.334H53.5007C54.6052 48.334 55.5007 47.4386 55.5007 46.334V38.334M55.5007 38.334H42.1673M55.5007 38.334L51.0833 30.9717C50.7218 30.3692 50.0708 30.0007 49.3683 30.0007H42.1673" stroke="#FAFAFA" stroke-width="2" stroke-linecap="round" stroke-linejoin="round"/>
<path d="M28.5 48H27.1667C26.0621 48 25.1667 47.1046 25.1667 46V41.3333M23.5 28H39.8333C40.9379 28 41.8333 28.8954 41.8333 30V48M35.5 48H45.1667M52.5 48H53.1667C54.2712 48 55.1667 47.1046 55.1667 46V38M55.1667 38H41.8333M55.1667 38L50.7493 30.6377C50.3878 30.0353 49.7368 29.6667 49.0343 29.6667H41.8333" stroke="#FAFAFA" stroke-width="2" stroke-linecap="round" stroke-linejoin="round"/>
<path d="M25.5 31.8184H32.1667" stroke="#FAFAFA" stroke-width="2" stroke-linecap="round" stroke-linejoin="round"/>
<path d="M22.3184 35.4541H28.985" stroke="#FAFAFA" stroke-width="2" stroke-linecap="round" stroke-linejoin="round"/>
<path d="M25.5 39.0908H32.1667" stroke="#FAFAFA" stroke-width="2" stroke-linecap="round" stroke-linejoin="round"/>
</g>
<defs>
<clipPath id="clip0_1948_2028">
<rect width="40" height="40" fill="white" transform="translate(20.5 20)"/>
</clipPath>
</defs>
</svg>
